<?xml version="1.0" encoding="UTF-8"?>
<svg version="1.1" xmlns="http://www.w3.org/2000/svg" width="50" height="50">
<path d="M0 0 C16.5 0 33 0 50 0 C50 16.5 50 33 50 50 C33.5 50 17 50 0 50 C0 33.5 0 17 0 0 Z " fill="#D0CDC9" transform="translate(0,0)"/>
<path d="M0 0 C-1.5 3 -1.5 3 -3 6 C-2.25234375 5.95359375 -1.5046875 5.9071875 -0.734375 5.859375 C7.28156446 5.56559711 7.28156446 5.56559711 10.6875 7.625 C12.41496376 10.7508868 12.57579666 12.47324544 12 16 C7.83437611 22.39720812 2.96514893 24.56219788 -4 27 C-3.67 29.97 -3.34 32.94 -3 36 C-4.32 36 -5.64 36 -7 36 C-9.71853563 30.56292873 -8.67197884 21.3761329 -7 15.625 C-6.67 14.75875 -6.34 13.8925 -6 13 C-6.66 13 -7.32 13 -8 13 C-8.26554687 14.28777344 -8.53109375 15.57554688 -8.8046875 16.90234375 C-9.16101287 18.5808238 -9.51780798 20.25920417 -9.875 21.9375 C-10.04902344 22.78763672 -10.22304688 23.63777344 -10.40234375 24.51367188 C-10.57636719 25.32255859 -10.75039063 26.13144531 -10.9296875 26.96484375 C-11.08679199 27.7137085 -11.24389648 28.46257324 -11.40576172 29.23413086 C-12 31 -12 31 -14 32 C-16 31 -16 31 -16.8515625 29.06640625 C-18.75813372 22.89412266 -19.37028295 17.4456661 -19 11 C-19.66 11 -20.32 11 -21 11 C-21.33 13.31 -21.66 15.62 -22 18 C-23.32 18.33 -24.64 18.66 -26 19 C-25.66009167 13.62007164 -25.31442207 9.46726453 -22 5 C-17.125 5.875 -17.125 5.875 -16 7 C-15.60851239 8.51165654 -15.26027543 10.03469632 -14.9375 11.5625 C-14.76089844 12.38878906 -14.58429687 13.21507812 -14.40234375 14.06640625 C-14.26957031 14.70449219 -14.13679688 15.34257812 -14 16 C-13.68546875 15.09636719 -13.3709375 14.19273438 -13.046875 13.26171875 C-12.61890625 12.08222656 -12.1909375 10.90273438 -11.75 9.6875 C-11.33234375 8.51574219 -10.9146875 7.34398437 -10.484375 6.13671875 C-8.06134912 1.01648249 -5.60724648 -0.46727054 0 0 Z " fill="#C63733" transform="translate(32,7)"/>
<path d="M0 0 C10.56 0 21.12 0 32 0 C29 3 29 3 25.875 3.125 C24.92625 3.08375 23.9775 3.0425 23 3 C22.67 3.33 22.34 3.66 22 4 C19.30345146 4.07319621 16.63308542 4.09242537 13.9375 4.0625 C13.17888672 4.05798828 12.42027344 4.05347656 11.63867188 4.04882812 C9.75908129 4.0370068 7.87953101 4.01907078 6 4 C5.70222656 4.76699219 5.40445312 5.53398438 5.09765625 6.32421875 C3.96485616 9.08567092 2.63802046 11.50736017 1 14 C0.67 14 0.34 14 0 14 C0 9.38 0 4.76 0 0 Z " fill="#C5C5C4" transform="translate(0,0)"/>
<path d="M0 0 C1.32 0.66 2.64 1.32 4 2 C4.3452439 5.71137193 4.31499373 7.51625962 2.25 10.6875 C-2.13385005 15.19312366 -6.11570986 16.94049845 -12 19 C-11.67 21.97 -11.34 24.94 -11 28 C-12.32 28 -13.64 28 -15 28 C-17.25125626 23.49748749 -16.04371918 17.74643723 -15 13 C-14.33613281 12.91363281 -13.67226563 12.82726563 -12.98828125 12.73828125 C-8.54741704 12.03163278 -5.57559266 11.41442672 -1.875 8.75 C0.31832578 5.53312219 0.4436317 3.81523264 0 0 Z " fill="#B82C2C" transform="translate(40,15)"/>
<path d="M0 0 C3.125 0.25 3.125 0.25 5 1.75 C5.37125 2.245 5.7425 2.74 6.125 3.25 C4.85961332 7.15160892 3.78025211 9.27418805 0.125 11.25 C-3.625 11.9375 -3.625 11.9375 -6.875 12.25 C-6.215 11.26 -5.555 10.27 -4.875 9.25 C-4.45983202 7.23341096 -4.45983202 7.23341096 -4.3125 5.125 C-3.77089235 0.32790368 -3.77089235 0.32790368 0 0 Z " fill="#E7DBD7" transform="translate(34.875,15.75)"/>
<path d="M0 0 C2.31 0.33 4.62 0.66 7 1 C7 1.99 7 2.98 7 4 C5.02 4.99 5.02 4.99 3 6 C3.33 8.97 3.66 11.94 4 15 C2.68 15 1.36 15 0 15 C-2.19218189 10.61563621 -1.15774649 4.63098598 0 0 Z " fill="#B82325" transform="translate(25,28)"/>
<path d="M0 0 C2.64 0 5.28 0 8 0 C7.67 0.99 7.34 1.98 7 3 C8.32 3.33 9.64 3.66 11 4 C9.35 4 7.7 4 6 4 C5.731875 4.721875 5.46375 5.44375 5.1875 6.1875 C4.00645167 8.98471974 2.66638302 11.46419975 1 14 C0.67 14 0.34 14 0 14 C0 9.38 0 4.76 0 0 Z " fill="#ADABA6" transform="translate(0,0)"/>
<path d="M0 0 C0.66 0 1.32 0 2 0 C1.41171618 3.02545963 0.7473202 6.01071921 0 9 C-0.34060811 10.66519519 -0.67558396 12.33157466 -1 14 C-1.99 14 -2.98 14 -4 14 C-3.38029501 4.19156581 -3.38029501 4.19156581 0 0 Z " fill="#B42426" transform="translate(10,12)"/>
<path d="M0 0 C0.66 0 1.32 0 2 0 C1.74462428 2.1060986 1.47014626 4.20988754 1.1875 6.3125 C1.03667969 7.48425781 0.88585937 8.65601563 0.73046875 9.86328125 C0.00135005 12.99420274 -0.49171464 14.09645193 -3 16 C-3.33266291 9.79029227 -2.45029331 5.71735105 0 0 Z " fill="#E9E2DD" transform="translate(24,20)"/>
<path d="M0 0 C2.31 0 4.62 0 7 0 C7 1.32 7 2.64 7 4 C4.69 4 2.38 4 0 4 C0 2.68 0 1.36 0 0 Z " fill="#A8A5A1" transform="translate(43,0)"/>
<path d="M0 0 C6.27 0 12.54 0 19 0 C19 0.33 19 0.66 19 1 C17.58847656 1.09087891 17.58847656 1.09087891 16.1484375 1.18359375 C14.90320312 1.26738281 13.65796875 1.35117187 12.375 1.4375 C11.14523438 1.51871094 9.91546875 1.59992187 8.6484375 1.68359375 C5.38467612 1.96663944 2.22056141 2.41038953 -1 3 C-0.67 2.01 -0.34 1.02 0 0 Z " fill="#BDBDBC" transform="translate(8,0)"/>
<path d="M0 0 C3.31012244 3.31012244 3.50351065 4.53159589 4 9 C2.68 9 1.36 9 0 9 C0 6.03 0 3.06 0 0 Z " fill="#A20D19" transform="translate(25,34)"/>
<path d="M0 0 C2.475 0.495 2.475 0.495 5 1 C5 2.65 5 4.3 5 6 C4.01 6.495 4.01 6.495 3 7 C2.34 6.67 1.68 6.34 1 6 C0.375 2.9375 0.375 2.9375 0 0 Z " fill="#A9151E" transform="translate(15,32)"/>
<path d="M0 0 C-1.33345504 3.59007126 -2.8943231 6.79570907 -5 10 C-5.33 10 -5.66 10 -6 10 C-6.33663062 6.29706315 -6.47736015 4.60465619 -4.125 1.625 C-2 0 -2 0 0 0 Z " fill="#BABAB5" transform="translate(6,4)"/>
<path d="M0 0 C1.32 0 2.64 0 4 0 C4 2.97 4 5.94 4 9 C2 6 2 6 2 4 C1.34 4 0.68 4 0 4 C0 2.68 0 1.36 0 0 Z " fill="#C0BFBD" transform="translate(43,4)"/>
</svg>
